<svg width="69" height="70" viewBox="0 0 69 70" fill="none" xmlns="http://www.w3.org/2000/svg">
<circle cx="34.5" cy="35.4746" r="34.5" fill="white"/>
<path d="M28.5776 33.2005C28.3476 33.0995 28.1703 33.0189 27.9919 32.9437C26.8558 32.4611 26.2443 31.5153 26.2766 30.289C26.2766 30.2535 26.2733 30.2159 26.2809 30.1815C26.6312 28.7435 26.2916 27.4581 25.5651 26.1877C25.032 25.2581 25.2738 24.0038 26.1186 23.2859C27.2051 22.3638 27.8532 21.2869 28.1187 19.8714C28.3627 18.5731 29.3976 17.8154 30.7239 17.8326C31.9695 17.8487 33.0002 17.4812 33.9589 16.6762C35.0928 15.7229 36.3094 15.768 37.4981 16.6482C37.6421 16.7546 37.7947 16.8524 37.9247 16.9739C38.5621 17.565 39.3122 17.8165 40.1774 17.8014C40.5848 17.7939 41.0061 17.8229 41.4005 17.9207C42.471 18.1851 43.1953 18.8848 43.3694 19.9595C43.5833 21.2869 44.1852 22.3004 45.2105 23.1634C46.2154 24.0092 46.3745 25.2645 45.7984 26.436C45.7436 26.5489 45.7006 26.6692 45.6307 26.7713C45.0138 27.6666 44.945 28.6414 45.0987 29.6936C45.3448 31.3713 44.9214 32.1473 43.3737 33.021C43.7607 33.9249 44.1519 34.8363 44.542 35.7488C44.8376 36.4388 45.1621 37.1191 45.4115 37.8263C45.4985 38.0745 45.4975 38.4614 45.3556 38.6506C45.2341 38.8129 44.844 38.8602 44.5936 38.8226C43.8337 38.7097 43.0814 38.542 42.3323 38.3722C42.0067 38.2981 41.8068 38.3722 41.6337 38.6721C41.25 39.3384 40.8567 40.0026 40.4117 40.6281C40.2591 40.8431 39.9378 41.0613 39.6992 41.0559C39.495 41.0505 39.2177 40.7636 39.1134 40.5357C38.5406 39.2836 38.0096 38.0133 37.4669 36.7483C37.1273 35.9562 36.3524 36.0755 35.7247 35.9745C35.2174 35.8928 34.808 36.112 34.5629 36.6795C33.8976 38.2228 33.1593 39.7339 32.4499 41.2579C32.3822 41.4041 32.3177 41.5514 32.2404 41.6922C31.9104 42.2962 31.3655 42.3177 30.999 41.7222C30.6046 41.0828 30.2166 40.4379 29.8705 39.7716C29.6749 39.3954 29.46 39.2578 29.0279 39.3589C28.3498 39.5168 27.6598 39.6447 26.9676 39.7125C26.6635 39.7425 26.2088 39.692 26.067 39.4986C25.9208 39.2997 25.9842 38.843 26.1078 38.5668C26.8666 36.8687 27.6673 35.1899 28.454 33.5047C28.4916 33.4251 28.5206 33.3413 28.5798 33.1973L28.5776 33.2005ZM38.2042 35.2404C39.0016 35.2512 39.3552 35.0641 39.797 34.2699C40.4472 33.1016 41.3489 32.2762 42.6386 31.8904C42.7407 31.8603 42.8353 31.8055 42.9331 31.7603C43.7241 31.3896 44.0229 30.8855 43.852 30.0364C43.5715 28.6425 43.7435 27.356 44.4915 26.1179C45.0633 25.1721 44.9655 24.5939 44.1175 23.905C42.9976 22.9957 42.385 21.8576 42.1625 20.4486C42.0142 19.5146 41.5209 19.0976 40.5729 19.1191C39.1424 19.1524 37.9215 18.7311 36.8317 17.7896C36.0063 17.076 35.4571 17.0728 34.6349 17.7832C33.5301 18.7386 32.2909 19.1589 30.8421 19.1212C29.9329 19.0976 29.4331 19.5243 29.2934 20.4335C29.0741 21.8651 28.4422 23.0118 27.3072 23.9308C26.4808 24.6003 26.3926 25.1248 26.9322 26.048C27.6436 27.2657 27.9134 28.5275 27.6082 29.9096C27.5738 30.0655 27.5759 30.2299 27.5716 30.3911C27.5555 30.9919 27.8274 31.4197 28.3627 31.6797C28.6034 31.7969 28.8484 31.9108 29.101 32C30.1209 32.3601 30.9163 32.9845 31.4397 33.9421C31.5514 34.1452 31.6869 34.3365 31.8169 34.5289C32.2414 35.1598 32.7412 35.3608 33.4796 35.1899C33.7053 35.1372 33.932 35.0738 34.147 34.9889C35.1949 34.5773 36.2374 34.5805 37.2896 34.9803C37.6378 35.1125 38.0086 35.1856 38.2031 35.2393L38.2042 35.2404ZM29.7502 33.7906C29.0365 35.3253 28.368 36.7601 27.663 38.2755C28.3186 38.1723 28.9033 38.1175 29.4696 37.9821C30.0081 37.8531 30.3531 37.9832 30.61 38.4851C30.8787 39.0106 31.2108 39.505 31.5643 40.0961C32.1415 38.8505 32.6617 37.7252 33.2162 36.5269C31.2333 36.6408 30.6906 35.0426 29.7502 33.7906ZM43.8144 37.3437C43.2458 36.0217 42.7138 34.7869 42.1206 33.409C41.7874 33.7959 41.4886 34.0711 41.2747 34.4021C40.6611 35.3533 40.0947 36.341 38.7835 36.5333C39.1575 37.4007 39.495 38.1852 39.87 39.0569C40.2097 38.5163 40.5042 38.053 40.7943 37.5866C41.2285 36.8859 41.3102 36.8547 42.0926 37.018C42.63 37.1309 43.1717 37.2233 43.8144 37.3448V37.3437Z" fill="#0F75BC"/>
<path d="M47.6943 39.8543C47.6943 39.5738 47.6943 39.3825 47.6943 39.1912C47.69 37.2394 47.633 35.2866 47.704 33.3381C47.7341 32.518 47.9265 31.6658 48.2338 30.9038C48.6476 29.8774 49.6342 29.4593 50.6553 29.6807C51.6677 29.901 52.4125 30.7619 52.4447 31.8173C52.5576 35.4672 52.6511 39.1181 52.7553 42.768C52.7929 44.0674 52.2824 45.126 51.3753 46.0256C49.9395 47.4507 48.5219 48.893 47.0752 50.3063C46.7431 50.6298 46.6067 50.9565 46.7442 51.4703C46.9312 51.4703 47.1408 51.4617 47.3482 51.4713C48.2016 51.5122 48.7637 52.0388 48.8002 52.8879C48.826 53.4768 48.8099 54.0701 48.7691 54.6591C48.7153 55.4264 48.1683 55.9724 47.3977 55.9692C44.4442 55.9552 41.4908 55.9219 38.5374 55.8735C37.8377 55.8617 37.2928 55.3018 37.2606 54.5935C37.2316 53.9691 37.2359 53.3393 37.2713 52.7148C37.3133 51.9872 37.8463 51.4789 38.5944 51.3961C38.7867 51.3746 38.9813 51.3725 39.2392 51.3574C39.2392 51.121 39.2392 50.9114 39.2392 50.7018C39.2478 49.2337 39.2295 47.7656 39.2747 46.2996C39.3123 45.098 39.8239 44.1211 40.746 43.315C42.0239 42.1973 43.2556 41.0269 44.4808 39.85C45.3384 39.0257 46.4207 38.9784 47.6932 39.8543H47.6943ZM45.3675 51.4047C45.3771 51.2876 45.4051 51.1801 45.39 51.0801C45.2858 50.4106 45.5813 49.9473 46.0542 49.4906C47.5471 48.0493 48.9948 46.5608 50.4704 45.1013C51.1421 44.4371 51.4946 43.6665 51.4645 42.7046C51.3517 39.145 51.2614 35.5843 51.1582 32.0247C51.14 31.4046 50.8455 31.0327 50.3307 30.9457C49.8417 30.864 49.4365 31.1015 49.271 31.7141C49.1098 32.3117 48.9948 32.9404 48.9851 33.5573C48.955 35.4897 49.0173 37.4243 48.9711 39.3556C48.955 40.0166 48.8604 40.7453 48.5616 41.3181C47.7137 42.9485 46.2627 44.0824 44.9462 45.3141C44.8279 45.4248 44.4754 45.414 44.3174 45.3173C44.1573 45.2195 44.0186 44.9444 44.0251 44.752C44.0315 44.5531 44.1895 44.3274 44.34 44.1705C45.0837 43.3967 45.864 42.6573 46.5948 41.8727C46.9839 41.4546 46.9495 40.9946 46.597 40.684C46.2531 40.382 45.7726 40.4293 45.3911 40.7861C44.11 41.9813 42.8396 43.1871 41.5338 44.3554C40.933 44.8928 40.6085 45.5355 40.573 46.3179C40.5343 47.1755 40.5397 48.0354 40.5343 48.8941C40.5289 49.7141 40.5332 50.5342 40.5332 51.4058H45.3664L45.3675 51.4047ZM47.5137 54.6204C47.5137 54.141 47.4998 53.6617 47.5191 53.1834C47.532 52.8535 47.4052 52.7481 47.0806 52.7557C46.3648 52.7718 45.648 52.7578 44.9322 52.7503C42.9987 52.7299 41.0641 52.6998 39.1307 52.6944C38.9415 52.6944 38.5976 52.8255 38.589 52.9212C38.5363 53.4629 38.5632 54.0121 38.5632 54.6204H47.5159H47.5137Z" fill="#0F75BC"/>
<path d="M30.5219 51.3626C30.769 51.3744 30.9453 51.3755 31.1205 51.3916C31.9362 51.4668 32.4682 52.0128 32.4983 52.8307C32.5187 53.3853 32.523 53.9409 32.5069 54.4955C32.4822 55.3198 31.9373 55.8701 31.1076 55.8819C28.2262 55.9228 25.3437 55.955 22.4623 55.9744C21.5788 55.9808 21.0253 55.4295 20.9802 54.5439C20.9576 54.0968 20.9576 53.6486 20.9533 53.2015C20.9426 52.0279 21.4638 51.4926 22.6364 51.4668C22.7589 51.4647 22.8814 51.455 23.019 51.4486C23.1469 51.0004 23.0609 50.6694 22.7213 50.3384C21.2865 48.939 19.8915 47.4978 18.4567 46.0974C17.4346 45.1011 16.9531 43.9307 17.0036 42.4926C17.1315 38.9331 17.2067 35.3713 17.3185 31.8107C17.3507 30.7606 18.1031 29.8955 19.1144 29.6794C20.115 29.4656 21.0318 29.9008 21.5294 30.8541C21.6766 31.1368 21.811 31.4431 21.8647 31.7537C21.97 32.3685 22.0689 32.9918 22.0764 33.613C22.099 35.4745 22.0764 37.336 22.07 39.1985C22.07 39.3888 22.07 39.5779 22.07 39.8767C22.8083 39.263 23.5478 39.0018 24.3743 39.3146C24.6988 39.4371 25.017 39.6338 25.2749 39.8681C26.4926 40.974 27.6533 42.1444 28.9022 43.2127C29.9264 44.0887 30.4767 45.1419 30.5014 46.4692C30.5272 47.8653 30.5176 49.2614 30.5229 50.6576C30.5229 50.8704 30.5229 51.0832 30.5229 51.3637L30.5219 51.3626ZM29.1623 51.4013C29.1623 49.5592 29.215 47.7718 29.1279 45.9899C29.1032 45.4944 28.7657 44.9184 28.3981 44.553C27.0816 43.2418 25.693 42.0036 24.327 40.7419C23.8197 40.2733 23.0072 40.4603 22.9373 41.0965C22.9061 41.3824 23.0792 41.765 23.2845 41.9897C23.9959 42.7678 24.7644 43.4954 25.5092 44.2423C25.8198 44.554 25.8897 44.9055 25.5748 45.2365C25.2663 45.56 24.9224 45.4837 24.6322 45.1881C23.7047 44.2445 22.7664 43.3105 21.8658 42.3411C21.0619 41.4759 20.7373 40.4323 20.7642 39.2415C20.8072 37.3091 20.8222 35.3746 20.7706 33.4432C20.7523 32.764 20.5986 32.0525 20.3375 31.4259C20.0591 30.7574 19.1703 30.7574 18.7726 31.3722C18.648 31.5656 18.6157 31.8429 18.6082 32.0837C18.5018 35.554 18.4255 39.0255 18.2976 42.4948C18.2568 43.5975 18.6233 44.4616 19.4089 45.2204C20.7599 46.5251 22.0539 47.8901 23.4091 49.1894C24.0271 49.7816 24.5634 50.3598 24.3872 51.2981C24.3796 51.3379 24.4312 51.3884 24.4366 51.3991H29.1634L29.1623 51.4013ZM31.2097 54.6202C31.2097 54.0387 31.1979 53.5583 31.214 53.0801C31.2247 52.7694 31.0872 52.6706 30.7959 52.6802C30.1876 52.7007 29.5782 52.7082 28.9699 52.7125C26.8924 52.7308 24.8149 52.7404 22.7385 52.7694C22.5783 52.7716 22.286 52.8887 22.2806 52.9683C22.2409 53.5282 22.2591 54.0925 22.2591 54.6191H31.2097V54.6202Z" fill="#0F75BC"/>
<path d="M42.1227 26.2717C42.1249 29.8066 39.2757 32.6601 35.7419 32.6644C32.1845 32.6687 29.2912 29.7851 29.3084 26.2535C29.3256 22.7466 32.2242 19.8673 35.7344 19.8716C39.2553 19.8759 42.1216 22.7476 42.1227 26.2717ZM40.8266 26.2556C40.8158 23.4537 38.5287 21.1688 35.7312 21.1656C32.9271 21.1624 30.5885 23.501 30.6024 26.2954C30.6153 29.1037 32.9379 31.3844 35.7709 31.3704C38.5739 31.3564 40.8373 29.0672 40.8266 26.2556Z" fill="#0F75BC"/>
<path d="M40.2495 53.7572C40.0582 53.8948 39.8583 54.1527 39.6799 54.1376C39.495 54.1226 39.236 53.869 39.1823 53.6734C39.1017 53.3778 39.3263 53.1328 39.6423 53.179C39.8551 53.2101 40.0431 53.4047 40.243 53.5261C40.2452 53.6035 40.2473 53.6798 40.2495 53.7572Z" fill="#0F75BC"/>
<path d="M30.6788 53.8025C30.481 53.925 30.2607 54.169 30.0898 54.1389C29.9017 54.1056 29.7577 53.8208 29.5944 53.6445C29.7695 53.4844 29.934 53.2146 30.1242 53.1953C30.2972 53.177 30.4993 53.4285 30.6885 53.5607C30.6852 53.6413 30.682 53.7219 30.6788 53.8025Z" fill="#0F75BC"/>
<path d="M34.42 27.4087C35.5539 26.3791 36.6104 25.4193 37.669 24.4617C37.9345 24.2221 38.1924 23.9727 38.4762 23.7556C38.761 23.5385 39.0522 23.5912 39.2951 23.8437C39.5402 24.0995 39.5563 24.3843 39.337 24.6659C39.2607 24.7637 39.1651 24.8476 39.0727 24.9314C37.7357 26.1469 36.3997 27.3625 35.0595 28.5748C34.5383 29.0466 34.2868 29.038 33.7827 28.5404C33.2744 28.0374 32.7638 27.5355 32.2652 27.0218C31.9062 26.6521 31.875 26.2555 32.1899 25.9911C32.5478 25.6902 32.8821 25.7955 33.1808 26.1083C33.5753 26.522 33.9697 26.9358 34.419 27.4066L34.42 27.4087Z" fill="#0F75BC"/>
</svg>
