<svg width="69" height="70" viewBox="0 0 69 70" fill="none" xmlns="http://www.w3.org/2000/svg">
<circle cx="34.5" cy="35.4746" r="34.5" fill="white"/>
<path d="M33.7962 20.6435C34.77 20.4519 35.666 20.2252 36.5765 20.1065C39.3686 19.7437 42.0701 20.1133 44.6686 21.2126C45.3233 21.4899 45.5733 21.9238 45.3612 22.4394C45.1637 22.9219 44.6666 23.0727 44.0362 22.8091C41.2568 21.6465 38.4016 21.4345 35.4558 22.0298C34.3653 22.2507 33.7339 22.5931 33.4781 23.8947C32.874 26.9689 31.3213 29.6053 28.9651 31.7192C28.5692 32.0743 28.1139 32.3652 27.6703 32.6638C26.9086 33.1755 26.1293 33.2028 25.3452 32.7018C25.2402 32.6347 25.1234 32.586 24.9707 32.5082C24.6847 33.731 24.5203 34.9354 24.6127 36.1495C24.6886 37.1476 24.8938 38.136 25.0232 39.1312C25.0796 39.5651 25.2781 39.6993 25.7246 39.6974C29.9243 39.6789 34.124 39.6945 38.3238 39.6809C39.2684 39.6779 40.1147 39.8861 40.8531 40.5029C40.9533 40.5866 41.2189 40.5788 41.3473 40.5058C42.1081 40.0739 42.5176 39.0835 42.3162 38.2508C42.0818 37.2819 41.3162 36.5756 40.3784 36.5464C39.244 36.5104 38.1088 36.5464 36.9735 36.524C34.3731 36.4754 32.5792 34.2388 33.1318 31.7523C33.4966 30.1111 34.9762 28.8542 36.6641 28.7638C36.9851 28.7462 37.3071 28.7608 37.707 28.7608C37.707 28.0682 37.7099 27.4261 37.706 26.785C37.7031 26.3735 37.85 26.0525 38.2459 25.892C38.8063 25.6653 39.3744 26.0398 39.4007 26.678C39.4279 27.3395 39.4065 28.002 39.4065 28.72C39.6157 28.7317 39.7849 28.7492 39.9552 28.7501C40.9601 28.7531 41.966 28.7501 42.971 28.7521C43.7035 28.754 44.078 29.0498 44.0742 29.614C44.0703 30.1714 43.6967 30.4604 42.9535 30.4623C40.9913 30.4662 39.0291 30.4565 37.0669 30.4662C35.8177 30.472 34.9276 31.2143 34.7768 32.3457C34.6075 33.6104 35.5453 34.7593 36.8207 34.7973C37.8743 34.8284 38.9289 34.806 39.9824 34.8089C41.9261 34.8138 43.4447 35.8829 43.9302 37.5864C44.438 39.3657 43.757 41.0273 42.1013 42.1003C41.9719 42.184 41.8493 42.3912 41.8473 42.542C41.8162 44.3388 40.5204 45.6735 38.71 45.6978C36.9589 45.7221 35.2078 45.7007 33.4567 45.7095C33.2008 45.7105 32.9314 45.727 32.692 45.8068C32.262 45.9508 31.9799 46.2533 31.9605 46.7349C31.9439 47.1503 32.2533 47.5773 32.6998 47.7126C32.9284 47.7816 33.1785 47.804 33.4187 47.805C36.5162 47.8147 39.6128 47.8176 42.7102 47.8196C43.0177 47.8196 43.3251 47.7952 43.6335 47.7836C44.2279 47.7602 44.7036 47.519 45.1413 47.1055C46.6726 45.657 48.1435 44.1248 49.8041 42.8396C51.4258 41.5847 52.0056 39.9221 52.3111 38.0592C52.9298 34.2855 52.1671 30.8106 50.0016 27.6508C49.9646 27.5973 49.9267 27.5448 49.8907 27.4913C49.5561 26.9922 49.6037 26.5029 50.0181 26.2033C50.4297 25.9066 50.9706 25.997 51.278 26.4893C51.8257 27.3677 52.4074 28.2384 52.8326 29.1772C54.5447 32.9635 54.6984 36.8451 53.3929 40.787C53.3627 40.8794 53.3374 40.9728 53.3131 41.0672C53.3102 41.0788 53.3258 41.0954 53.3472 41.1391C53.6069 41.1995 53.8929 41.2452 54.1663 41.3327C56.7268 42.1567 57.4146 45.1501 55.4456 46.9946C53.1507 49.1455 50.8266 51.2653 48.5161 53.3997C48.0637 53.818 47.6055 54.2305 47.1619 54.6576C46.3292 55.4582 45.3301 55.9018 44.188 55.9194C41.3512 55.9612 38.5135 55.9933 35.6767 55.9622C33.4577 55.9378 31.2386 55.8269 29.0206 55.7287C27.574 55.6654 26.3122 55.001 25.0281 54.4212C23.9502 53.9348 22.8703 53.4513 21.7905 52.9688C21.7059 52.9308 21.6115 52.9143 21.4986 52.8802C21.3323 54.2101 20.6669 55.1362 19.3915 55.5468C19.0432 55.6586 18.6609 55.7112 18.2941 55.7112C17.3398 55.7131 16.3689 55.7715 15.434 55.6236C13.9018 55.3814 13.0039 54.2159 13.0029 52.6759C12.999 48.9626 12.999 45.2493 13.0029 41.5351C13.0049 39.8122 14.2676 38.531 16.0002 38.4921C16.6647 38.4775 17.3301 38.5057 17.9945 38.4843C19.6629 38.4288 20.8332 39.1186 21.4169 40.7344C22.0804 40.4406 22.7371 40.1507 23.4035 39.855C23.2721 39.1429 23.1087 38.4337 23.0133 37.7148C22.7458 35.6835 22.8421 33.6697 23.3986 31.691C23.4832 31.3894 23.4229 31.2026 23.2108 30.9653C20.7428 28.2083 19.2222 25.0475 19.122 21.2837C19.0948 20.2651 19.5005 19.5763 20.4208 19.1016C22.2643 18.1511 24.0786 17.1433 25.8968 16.1452C26.2918 15.9282 26.6439 15.9127 27.0418 16.1306C28.861 17.1268 30.6851 18.1161 32.514 19.0948C33.1541 19.4372 33.6989 19.8419 33.7952 20.6426L33.7962 20.6435ZM31.7698 41.4115C29.5488 41.4115 27.3269 41.4037 25.1059 41.4144C23.8578 41.4203 22.7624 41.8493 21.8168 42.6684C21.5667 42.8844 21.4549 43.1218 21.4568 43.4661C21.4714 45.8009 21.4714 48.1357 21.4568 50.4705C21.4549 50.8081 21.5492 50.9881 21.8683 51.1282C23.4132 51.8004 24.9541 52.4843 26.4825 53.1945C27.4621 53.6497 28.4593 54.0058 29.5478 54.0593C30.1792 54.0904 30.8096 54.1566 31.441 54.1634C34.8614 54.2004 38.2829 54.2286 41.7034 54.2461C42.5293 54.25 43.3552 54.2111 44.1812 54.177C44.9088 54.1478 45.5101 53.8453 46.0441 53.3443C47.5686 51.9123 49.1144 50.5036 50.6505 49.0842C51.8772 47.9509 53.1127 46.8273 54.3239 45.6774C55.2617 44.7863 54.9446 43.4185 53.7159 43.0041C52.9269 42.7375 52.2158 42.8912 51.599 43.4613C49.7779 45.1453 47.9489 46.8214 46.1375 48.5161C45.6073 49.0123 45.0081 49.345 44.2911 49.4053C43.4856 49.4734 42.6752 49.5142 41.8668 49.5162C38.9483 49.523 36.0298 49.522 33.1113 49.4967C31.1793 49.4802 29.8553 47.8021 30.3339 46.0247C30.6608 44.8106 31.8155 43.9827 33.2582 43.9681C34.9441 43.9516 36.631 43.9633 38.3169 43.9633C38.4629 43.9633 38.6088 43.9672 38.7547 43.9594C39.531 43.9137 40.1099 43.3766 40.1147 42.7015C40.1196 42.0361 39.533 41.4709 38.7751 41.4164C38.6137 41.4047 38.4512 41.4096 38.2887 41.4096C36.1164 41.4096 33.9431 41.4096 31.7708 41.4096L31.7698 41.4115ZM32.1366 21.8479C32.0295 21.3557 32.3068 20.9247 31.7873 20.6523C30.1228 19.7777 28.4738 18.8759 26.8259 17.9702C26.5613 17.8243 26.357 17.8535 26.1079 17.9897C24.5154 18.8603 22.9229 19.731 21.3158 20.5745C20.9636 20.7593 20.8352 20.9714 20.842 21.3644C20.8741 23.3081 21.4451 25.1011 22.3499 26.7938C23.2527 28.4826 24.3675 29.9993 25.996 31.0859C26.3706 31.3359 26.642 31.3223 26.9913 31.0655C30.1403 28.7385 31.6404 25.5164 32.1375 21.8479H32.1366ZM19.7271 47.0676C19.7271 45.2357 19.7291 43.4029 19.7262 41.5711C19.7242 40.75 19.2679 40.2587 18.4517 40.2354C17.6414 40.213 16.83 40.214 16.0197 40.2354C15.2005 40.2558 14.7277 40.7471 14.7268 41.5584C14.7229 45.2552 14.7229 48.9519 14.7268 52.6487C14.7268 53.4678 15.1762 53.9523 16.007 53.9844C16.8164 54.0155 17.6287 54.0155 18.4381 53.9854C19.2923 53.9533 19.7252 53.4717 19.7262 52.6127C19.7291 50.7643 19.7262 48.9159 19.7262 47.0676H19.7271Z" fill="#0F75BC"/>
<path d="M47.8799 23.2827C48.3692 23.2827 48.737 23.6514 48.7331 24.1378C48.7292 24.6194 48.3478 24.9852 47.8614 24.9754C47.4003 24.9657 47.0403 24.6038 47.0335 24.1437C47.0267 23.6573 47.3954 23.2827 47.8799 23.2837V23.2827Z" fill="#0F75BC"/>
<path d="M25.997 24.3919C26.7363 23.6905 27.4523 23.0134 28.1664 22.3334C28.2715 22.2332 28.3658 22.1204 28.4728 22.0211C28.8756 21.6495 29.3912 21.6301 29.7336 21.9696C30.0809 22.313 30.0761 22.8169 29.6918 23.2304C29.2287 23.7285 28.7452 24.2071 28.2705 24.6935C27.7958 25.1809 27.3259 25.6722 26.8453 26.1537C26.3307 26.6693 25.9425 26.6839 25.4143 26.2072C24.9707 25.8055 24.53 25.3978 24.1058 24.9766C23.7001 24.5729 23.6797 24.0981 24.0231 23.7285C24.3656 23.3598 24.8403 23.3598 25.2761 23.7314C25.4113 23.8472 25.5378 23.9736 25.6682 24.0943C25.7985 24.2139 25.9299 24.3316 25.997 24.3919Z" fill="#0F75BC"/>
</svg>
