<svg width="69" height="70" viewBox="0 0 69 70" fill="none" xmlns="http://www.w3.org/2000/svg">
<circle cx="34.5" cy="35.4746" r="34.5" fill="white"/>
<path d="M36.8466 52.007V46.0662C36.6931 46.0662 36.547 46.0662 36.4009 46.0662C35.0804 46.0662 33.7598 46.0679 32.4393 46.0662C31.8137 46.0654 31.5867 45.8426 31.5834 45.231C31.5801 44.6673 31.5785 44.1028 31.5842 43.5391C31.59 43.0183 31.8269 42.7657 32.3336 42.7649C36.6807 42.7616 41.0277 42.7608 45.3747 42.7649C45.86 42.7649 46.1035 43.0199 46.1109 43.5102C46.1192 44.1019 46.1175 44.6937 46.1109 45.2846C46.1052 45.8219 45.865 46.0629 45.3244 46.0646C43.9898 46.0695 42.6553 46.0662 41.3215 46.0662C41.173 46.0662 41.0236 46.0662 40.8527 46.0662V46.7496C42.7906 46.5837 44.3043 47.2927 45.4185 48.8963C46.4378 47.9257 47.2631 46.833 47.8937 45.6024C49.6095 42.254 49.8769 38.7893 48.6951 35.2115C48.6059 34.9416 48.4895 34.8079 48.1924 34.7889C47.8813 34.7691 47.5751 34.6791 47.226 34.6114C47.0774 35.1595 46.9264 35.7108 46.7786 36.2629C46.5863 36.9834 46.3882 37.1015 45.6504 36.9306C45.5324 36.9034 45.4119 36.8869 45.2592 36.8596C45.1148 37.3903 44.9753 37.9037 44.8341 38.417C44.6154 39.2143 44.4561 39.3109 43.6646 39.1334C43.559 39.1095 43.4542 39.0864 43.3023 39.0534C43.1513 39.6163 43.0052 40.1692 42.8542 40.7214C42.6709 41.3899 42.4432 41.5244 41.7796 41.3536C41.0483 41.1662 40.3171 40.9748 39.5875 40.7808C39.0205 40.6306 38.8563 40.3467 39.0048 39.7731C39.1517 39.2036 39.3044 38.6349 39.467 38.0192C39.2689 37.9664 39.1006 37.9251 38.9347 37.8765C38.451 37.7345 38.267 37.4242 38.3916 36.9372C38.541 36.3529 38.7036 35.7719 38.8744 35.1363C38.7052 35.0877 38.5558 35.0414 38.4048 35.001C37.8411 34.8483 37.6612 34.552 37.8114 33.9875C38.2637 32.2889 38.7209 30.5912 39.1765 28.8935C39.8277 26.4662 40.4789 24.0389 41.1325 21.6116C41.3149 20.9357 41.5642 20.7962 42.2492 20.9761C42.7914 21.1189 43.332 21.265 43.9156 21.421C44.0294 20.9934 44.1334 20.6014 44.2498 20.1623C43.8726 20.0567 43.5202 19.9576 43.1678 19.8586C42.5579 19.6878 42.4027 19.4311 42.5595 18.8335C42.7543 18.0899 42.9516 17.3463 43.1554 16.6043C43.3056 16.0579 43.5961 15.8788 44.1343 16.0216C46.1786 16.5639 48.2205 17.1119 50.2615 17.6649C50.7914 17.8085 50.9532 18.0916 50.8203 18.6181C50.6247 19.3898 50.4208 20.1607 50.2095 20.9282C50.0659 21.4498 49.787 21.6034 49.2555 21.4771C48.8832 21.3888 48.5118 21.298 48.095 21.1973C47.9795 21.6075 47.8697 21.9987 47.7459 22.4394C48.1371 22.5492 48.5143 22.6581 48.8923 22.7613C49.8271 23.0144 50.1683 23.6141 49.9157 24.5605C49.8208 24.9162 49.7292 25.272 49.6293 25.6533C49.7738 25.6978 49.8877 25.7358 50.0032 25.768C52.4776 26.4646 53.9013 29.0322 53.2038 31.5057C53.1403 31.7318 53.151 32.0215 53.2352 32.2403C55.9671 39.3101 54.9032 45.7642 50.1188 51.6232C50.0329 51.728 49.9454 51.8312 49.8225 51.9797C49.9818 51.9913 50.0965 52.007 50.2112 52.007C51.0365 52.0095 51.8619 52.0012 52.6872 52.0103C53.8402 52.0235 54.6795 52.8703 54.6961 54.029C54.7018 54.4417 54.706 54.8544 54.6936 55.267C54.6804 55.707 54.4344 55.9479 53.9986 55.9719C53.9029 55.9768 53.8063 55.9735 53.7098 55.9735C45.5662 55.9735 37.4218 55.9735 29.2783 55.9735C28.4587 55.9735 28.2821 55.7977 28.2813 54.9889C28.2813 54.6588 28.2763 54.3286 28.2829 53.9985C28.3044 52.8711 29.1495 52.0177 30.2802 52.0119C32.2883 52.0012 34.2971 52.0086 36.3052 52.0086C36.4694 52.0086 36.6345 52.0086 36.8466 52.0086V52.007ZM42.302 22.3585C41.2679 26.212 40.2486 30.0094 39.2202 33.8397C41.3727 34.4167 43.4715 34.9779 45.591 35.5457C45.7197 35.0753 45.8171 34.6618 45.95 34.2598C46.0268 34.0279 45.9715 33.9008 45.7891 33.7399C44.3414 32.4573 43.7934 30.8529 44.3101 28.986C44.8209 27.1405 46.0887 26.042 47.9721 25.6582C48.0876 25.6343 48.2535 25.5526 48.2832 25.461C48.4301 25.0112 48.5382 24.5498 48.6653 24.0736C46.5269 23.4975 44.438 22.9338 42.302 22.3585ZM46.158 51.9781C47.2782 52.092 48.2056 51.75 48.9402 50.9522C49.0516 50.8309 49.1614 50.7079 49.2662 50.58C52.6575 46.4624 53.9549 41.7646 53.1048 36.4998C52.9315 35.4269 52.5824 34.3828 52.3257 33.3701C51.4888 33.8794 50.7369 34.3374 49.957 34.812C49.9718 34.8574 50.0139 34.987 50.0544 35.1165C50.746 37.3317 50.9259 39.5849 50.5265 41.8752C49.9694 45.0635 48.516 47.7763 46.1786 50.0171C46.092 50.0996 46.0078 50.2441 46.0144 50.3547C46.0441 50.887 46.106 51.4169 46.1588 51.9789L46.158 51.9781ZM29.6051 54.6192H53.3499C53.4358 53.4876 53.2922 53.33 52.2027 53.33C45.0273 53.33 37.8527 53.33 30.6772 53.33C30.5394 53.33 30.4015 53.3234 30.2654 53.3333C29.8717 53.3622 29.6332 53.5957 29.6076 53.9886C29.5944 54.1916 29.6051 54.3955 29.6051 54.6192ZM45.4523 30.2C45.4449 32.0075 46.9082 33.4989 48.7041 33.5154C50.5496 33.5327 52.0484 32.0521 52.0509 30.2099C52.0525 28.4091 50.5776 26.9251 48.7776 26.916C46.9511 26.9069 45.4597 28.3793 45.4523 30.2ZM38.2141 51.9773H44.7648C45.0372 49.4864 43.2173 48.0338 41.4651 48.0479C39.434 48.0635 38.0185 49.7571 38.2141 51.9773ZM44.7797 44.1077H32.9337V44.7135H44.7797V44.1077ZM43.9692 18.7048C45.6793 19.1628 47.3572 19.6118 49.059 20.0682C49.177 19.6267 49.2835 19.2239 49.3974 18.7989C47.6766 18.3375 46.0094 17.891 44.3076 17.4354C44.1929 17.8679 44.0847 18.2731 43.9692 18.7048ZM43.9816 36.4907C42.6883 36.1433 41.4387 35.8073 40.1562 35.4632C40.0357 35.9163 39.9292 36.3182 39.8169 36.7416C41.1185 37.0874 42.368 37.4192 43.6358 37.7568C43.7563 37.3136 43.8603 36.9314 43.9808 36.4907H43.9816ZM39.5041 46.0885H38.2117V48.0107C38.6153 47.7458 39.0032 47.4982 39.3803 47.2366C39.4439 47.1928 39.4942 47.0863 39.4984 47.0071C39.5124 46.7092 39.5041 46.4104 39.5041 46.0885ZM45.5406 20.5007C45.4193 20.948 45.3137 21.3401 45.1981 21.7651C45.6306 21.879 46.0416 21.9871 46.4716 22.1002C46.5896 21.6488 46.6911 21.2592 46.8009 20.8374C46.3693 20.7219 45.9789 20.6171 45.5406 20.4999V20.5007ZM40.4095 39.6286C40.8536 39.7483 41.2456 39.8539 41.6781 39.9703C41.7944 39.5329 41.9026 39.1235 42.0165 38.6952C41.5576 38.5763 41.1672 38.4765 40.7529 38.3692C40.6348 38.8033 40.5284 39.1937 40.4095 39.6295V39.6286Z" fill="#0F75BC"/>
<path d="M15 26.911C15.0602 20.6641 20.3853 15.8045 26.6083 16.3608C31.5983 16.8073 35.6061 20.7706 36.1409 25.7745C36.3588 27.8123 35.9948 29.7386 35.1241 31.5841C35.0399 31.7615 35.0119 32.0075 35.0581 32.1981C35.4064 33.6391 35.7827 35.0736 36.145 36.5121C36.3175 37.1972 35.9271 37.5933 35.2496 37.4225C33.8118 37.0602 32.3774 36.683 30.9372 36.333C30.7465 36.2868 30.4989 36.3091 30.3231 36.3933C24.049 39.4148 16.7604 35.8783 15.2806 29.0718C15.1271 28.3644 15.0916 27.6315 15.0008 26.9102L15 26.911ZM34.5967 35.8907C34.5637 35.7116 34.5488 35.5919 34.5191 35.4763C34.2451 34.3985 33.9785 33.3189 33.6864 32.246C33.5857 31.8771 33.6212 31.5643 33.8011 31.2234C34.6825 29.5496 35.0251 27.7702 34.8204 25.8818C34.2682 20.7945 29.6183 17.1036 24.5433 17.7358C19.4783 18.3664 15.912 22.8562 16.4617 27.9113C17.1335 34.0931 23.6016 37.8929 29.2758 35.3723C30.196 34.9638 30.9809 34.8961 31.897 35.1883C32.7669 35.4656 33.6657 35.6521 34.5975 35.8907H34.5967Z" fill="#0F75BC"/>
<path d="M20.3564 42.7873C19.476 42.7251 19.0359 42.2723 19.0359 41.4288C19.0359 40.8098 19.0309 40.1908 19.0375 39.5718C19.0433 39.0535 19.2818 38.8034 19.7911 38.8018C22.3636 38.7968 24.9354 38.7976 27.5079 38.8018C28.0427 38.8018 28.2788 39.0485 28.2821 39.5924C28.287 40.3493 28.2846 41.1053 28.2829 41.8621C28.2813 42.5578 28.0766 42.7592 27.3684 42.7642C27.2479 42.765 27.1274 42.7642 26.9632 42.7642C26.9632 42.9458 26.9632 43.0927 26.9632 43.2396C26.9632 46.3758 26.9714 49.5121 26.9591 52.6484C26.9516 54.493 25.5131 55.948 23.7106 55.9695C21.8651 55.9918 20.3688 54.5343 20.3605 52.6682C20.3473 49.5459 20.3564 46.4229 20.3564 43.3006C20.3564 43.1381 20.3564 42.9755 20.3564 42.7873ZM21.7108 46.7464V48.0447C22.1251 48.0447 22.5089 48.0397 22.8927 48.0455C23.3697 48.0529 23.666 48.3195 23.6569 48.7198C23.6478 49.1052 23.3606 49.3578 22.9042 49.3652C22.5097 49.3718 22.1144 49.3668 21.705 49.3668V50.6849C22.1127 50.6849 22.4948 50.6808 22.877 50.6857C23.3623 50.6923 23.6561 50.9441 23.6561 51.3452C23.6561 51.7455 23.3614 52.0005 22.8778 52.0063C22.4849 52.0112 22.0929 52.0071 21.6786 52.0071C21.6786 52.2142 21.6786 52.3636 21.6786 52.5138C21.6827 53.7461 22.5138 54.6424 23.6536 54.6448C24.795 54.6473 25.6352 53.7535 25.6369 52.5229C25.6402 50.7229 25.6377 48.9228 25.6377 47.1228V46.7439H21.7091L21.7108 46.7464ZM25.6204 42.7865H21.7058V45.3739H25.6204V42.7865ZM26.9508 40.147H20.3886V41.409H26.9508V40.147Z" fill="#0F75BC"/>
<path d="M48.7413 32.1959C47.6469 32.1909 46.7621 31.2872 46.772 30.1837C46.7811 29.1108 47.6857 28.226 48.7619 28.2359C49.8629 28.2467 50.746 29.1479 50.732 30.2473C50.7179 31.3243 49.8225 32.2008 48.7413 32.1959ZM48.7726 30.8729C49.13 30.8613 49.4205 30.5518 49.409 30.1969C49.3966 29.8395 49.0887 29.5507 48.7322 29.5614C48.3756 29.5721 48.0851 29.8808 48.0967 30.2374C48.1082 30.5939 48.4169 30.8844 48.7726 30.8729Z" fill="#0F75BC"/>
<path d="M30.924 27.5979H29.6076C29.3839 28.1393 29.1668 28.6667 28.944 29.2065C29.2213 29.4887 29.5333 29.8073 29.9327 30.2134C30.0458 30.0599 30.1407 29.8865 30.2769 29.7553C30.5773 29.4656 30.9718 29.4664 31.2335 29.7314C31.4902 29.9905 31.5091 30.3669 31.2302 30.6566C30.6203 31.2904 29.9971 31.9127 29.3624 32.5227C29.081 32.7934 28.684 32.7711 28.4356 32.5194C28.1855 32.266 28.1781 31.8781 28.4447 31.5925C28.5833 31.4439 28.7641 31.3342 28.9192 31.2112C28.5239 30.8324 28.2012 30.5237 27.8967 30.2324C27.4056 30.4362 26.8774 30.6549 26.3194 30.8852V32.1983C26.5472 32.1983 26.7635 32.1859 26.9781 32.2008C27.3651 32.228 27.6284 32.5119 27.6202 32.8718C27.6119 33.2151 27.3569 33.5031 26.9904 33.5106C26.0966 33.5279 25.2028 33.5271 24.3089 33.5122C23.9202 33.5056 23.6569 33.2077 23.6627 32.8478C23.6685 32.4872 23.9334 32.2231 24.3287 32.1999C24.5309 32.1884 24.7348 32.1975 24.9585 32.1975V30.8811C24.4187 30.6591 23.8913 30.4412 23.3532 30.2191C23.0709 30.4965 22.7532 30.8093 22.4164 31.1402C22.5518 31.283 22.6987 31.4241 22.8308 31.5785C23.0858 31.8772 23.08 32.2552 22.825 32.507C22.5658 32.7628 22.1886 32.781 21.8998 32.5037C21.275 31.9028 20.6626 31.2904 20.0609 30.6665C19.7712 30.3661 19.7919 29.9691 20.0684 29.7116C20.3275 29.4697 20.7063 29.473 20.996 29.7446C21.1347 29.8742 21.2362 30.0434 21.3617 30.2035C21.7364 29.8065 22.0426 29.4821 22.3281 29.1792C22.121 28.6766 21.9023 28.1484 21.6728 27.5921H20.3581C20.3581 27.8216 20.3704 28.0378 20.3556 28.2524C20.3275 28.6378 20.0411 28.9019 19.6829 28.8928C19.3404 28.8838 19.0532 28.6279 19.0466 28.2615C19.0301 27.3676 19.0301 26.473 19.0458 25.58C19.0524 25.1912 19.3503 24.9288 19.711 24.9354C20.07 24.942 20.3349 25.2086 20.3581 25.6031C20.3696 25.8053 20.3605 26.0083 20.3605 26.232H21.6761C21.8998 25.6905 22.1177 25.1623 22.3405 24.6226C22.064 24.3411 21.7512 24.0225 21.4194 23.6858C21.2651 23.8335 21.1149 23.992 20.949 24.1315C20.6667 24.3692 20.2945 24.3626 20.0494 24.1307C19.7919 23.8872 19.7605 23.482 20.0271 23.2046C20.6461 22.5601 21.2783 21.9279 21.9237 21.3089C22.1952 21.048 22.5658 21.072 22.8167 21.3122C23.0775 21.5606 23.0932 21.9402 22.8423 22.2398C22.7111 22.3966 22.5617 22.5378 22.4148 22.6921C22.7523 23.0107 23.0767 23.3177 23.378 23.6025C23.8822 23.3936 24.4096 23.1749 24.9667 22.9447V21.6316C24.7365 21.6316 24.5202 21.6448 24.3056 21.6291C23.9194 21.601 23.6569 21.3163 23.666 20.9564C23.6751 20.6123 23.9284 20.3267 24.2965 20.3201C25.1904 20.3036 26.0842 20.3036 26.9781 20.3193C27.366 20.3259 27.6292 20.6247 27.6226 20.9845C27.616 21.3427 27.3486 21.6084 26.9549 21.6316C26.7527 21.6431 26.5497 21.634 26.3269 21.634V22.9496C26.8691 23.1741 27.3965 23.392 27.9313 23.6132C28.2086 23.3276 28.5198 23.0074 28.9126 22.6038C28.7888 22.5122 28.6155 22.4173 28.4851 22.2811C28.1954 21.9798 28.1954 21.5878 28.4612 21.3245C28.7203 21.0679 29.0967 21.0489 29.3856 21.327C30.0103 21.927 30.6227 22.5402 31.2244 23.1642C31.5141 23.4646 31.4943 23.8624 31.2178 24.1199C30.9586 24.3618 30.5815 24.3552 30.2885 24.0877C30.1482 23.9598 30.0318 23.8055 29.8973 23.6544C29.5481 24.0242 29.2419 24.3486 28.9572 24.6498C29.166 25.1541 29.3847 25.6823 29.615 26.2394H30.9281C30.9281 26.0099 30.9157 25.7929 30.9306 25.5783C30.9586 25.1912 31.2417 24.9288 31.6024 24.9378C31.9457 24.9461 32.233 25.2011 32.2396 25.5684C32.2561 26.4622 32.2561 27.3561 32.2412 28.2499C32.2346 28.637 31.935 28.9019 31.576 28.8953C31.2178 28.8887 30.952 28.6213 30.9289 28.2276C30.9174 28.0254 30.9273 27.8224 30.9273 27.5987L30.924 27.5979ZM28.2796 26.9203C28.2813 25.4743 27.1085 24.2858 25.6674 24.2751C24.2016 24.2644 23.0024 25.4487 23.0016 26.9079C23.0016 28.3721 24.1917 29.5589 25.655 29.5539C27.0953 29.5498 28.2771 28.363 28.2788 26.9203H28.2796Z" fill="#0F75BC"/>
</svg>
