<svg width="69" height="70" viewBox="0 0 69 70" fill="none" xmlns="http://www.w3.org/2000/svg">
<circle cx="34.5" cy="35.4746" r="34.5" fill="white"/>
<path d="M29.9321 54.1963C32.0248 54.6758 34.0398 54.7593 36.0606 54.3862C36.8749 54.2356 37.6728 53.9987 38.4737 53.7839C38.9791 53.6477 39.3493 53.7666 39.4778 54.1426C39.6083 54.5262 39.3963 54.86 38.8995 55.0288C35.5955 56.149 32.2406 56.3178 28.9039 55.3002C21.9534 53.1796 17.8716 48.4504 16.8146 41.2918C16.1068 36.4973 17.5052 32.1814 20.5819 28.4304C20.8073 28.1561 20.8303 27.9778 20.6826 27.6459C20.2424 26.6561 19.8012 25.6568 19.4895 24.6229C19.0531 23.1747 18.1986 22.1926 16.759 21.7236C16.6986 21.7034 16.619 21.7034 16.5797 21.6631C16.3792 21.4636 16.0896 21.2814 16.0205 21.0397C15.9217 20.6935 16.1941 20.4269 16.5269 20.3329C18.0615 19.9013 19.5854 19.4112 21.144 19.0899C23.0861 18.689 25.0503 18.7005 26.9857 19.2338C28.761 19.7219 30.2054 20.6801 31.2633 22.2069C31.3544 22.3393 31.55 22.4745 31.7006 22.4784C32.7364 22.5023 33.7722 22.4908 34.786 22.4908C35.0229 21.9192 35.1974 21.4051 35.441 20.9266C36.9583 17.9496 39.4682 16.4313 42.7234 16.0765C46.271 15.689 49.6508 16.4476 52.9559 17.6637C53.3078 17.7932 53.5994 17.9956 53.5783 18.4147C53.5572 18.8348 53.2436 18.9863 52.882 19.0957C51.1115 19.6318 50.0182 20.8067 49.5521 22.5982C49.014 24.667 48.077 26.5439 46.7218 28.2022C46.5003 28.4736 46.4945 28.6453 46.7151 28.9292C52.2567 36.0561 51.1662 46.233 44.2502 52.0316C44.1889 52.0834 44.1275 52.1342 44.0642 52.1832C43.6556 52.4968 43.2662 52.4901 43.0044 52.1659C42.7416 51.8408 42.8308 51.4993 43.2144 51.1243C43.9683 50.3887 44.7336 49.6617 45.4357 48.8791C46.2519 47.9699 46.226 47.9459 45.7407 46.8161C45.5134 46.2877 45.3158 45.7429 45.0444 45.2384C44.3999 44.0415 44.0555 42.7889 44.2176 41.4232C44.2531 41.122 44.1256 40.981 43.8359 40.9484C42.3512 40.7844 41.138 40.0296 39.9708 39.1703C39.4212 38.7665 39.3723 38.3963 39.8452 37.9091C40.2787 37.4612 40.7208 37.021 41.1725 36.5913C41.3691 36.4043 41.4267 36.2374 41.3269 35.9641C41.0469 35.1997 40.8033 34.4219 40.5472 33.6479C40.3247 32.9755 39.9478 32.3051 40.6719 31.5321C39.9085 31.5321 39.3042 31.5695 38.7067 31.5216C38.1054 31.4727 37.5117 31.3393 36.8528 31.2329C36.5248 32.0989 36.1776 32.9861 35.8534 33.88C35.2981 35.4116 34.7563 36.9481 34.2086 38.4826C34.1712 38.5881 34.1568 38.731 34.0801 38.7866C33.8749 38.9372 33.6255 39.1732 33.4231 39.1463C33.1958 39.1166 32.8918 38.8768 32.8103 38.6581C32.0468 36.6095 31.3179 34.5475 30.5957 32.4845C30.4922 32.1872 30.3493 32.1747 30.0654 32.1968C29.3317 32.2524 28.8291 32.6073 28.4493 33.2115C28.2719 33.4935 28.0657 33.7716 27.8211 33.996C26.8735 34.864 26.5848 35.9219 26.7162 37.1792C26.8026 38.0012 26.7479 38.8404 26.7249 39.6709C26.7162 39.9817 26.8304 40.114 27.1095 40.2224C28.9106 40.9225 30.7012 41.6505 32.5043 42.3487C32.9992 42.5405 33.3828 42.8273 33.7061 43.2502C34.4139 44.1777 35.16 45.0754 35.8813 45.9923C36.2534 46.4651 36.2659 46.679 35.8813 47.1364C34.0341 49.3414 32.1744 51.5348 30.3195 53.733C30.2083 53.8644 30.098 53.9958 29.9301 54.1953L29.9321 54.1963ZM21.7031 29.2601C21.611 29.3358 21.5688 29.3608 21.5391 29.3962C17.9243 33.7169 17.017 39.7659 19.1414 44.9507C19.1932 45.0773 19.4138 45.2048 19.5605 45.2106C20.2952 45.2375 21.0308 45.2375 21.7654 45.2164C22.1539 45.2048 22.4339 45.3372 22.6727 45.6403C23.4832 46.6703 24.3137 47.6841 25.1155 48.7199C25.2623 48.9098 25.3611 49.1687 25.3946 49.4085C25.5251 50.3417 25.6066 51.2816 25.7428 52.2138C25.7696 52.398 25.9164 52.6368 26.0756 52.7183C26.7431 53.0588 27.4384 53.3436 28.1175 53.6621C28.3649 53.7781 28.5212 53.7138 28.691 53.5134C30.5737 51.2979 32.4612 49.0863 34.3582 46.8823C34.5731 46.6329 34.5405 46.4699 34.3438 46.2349C33.7588 45.5367 33.2112 44.8068 32.6194 44.1163C32.4324 43.8986 32.1725 43.7068 31.9078 43.5974C29.9426 42.7918 27.9698 42.0034 25.994 41.2246C25.5615 41.0539 25.3802 40.7787 25.3841 40.3145C25.3994 38.7799 25.4138 37.2454 25.3774 35.7118C25.3639 35.1412 25.5231 34.7 25.8953 34.2828C26.3997 33.7169 26.8668 33.1165 27.4001 32.4701C24.988 32.2102 23.159 31.0794 21.705 29.261L21.7031 29.2601ZM36.2409 28.6894C36.2898 28.6817 36.3378 28.675 36.3867 28.6673C36.4231 28.6175 36.4682 28.5705 36.496 28.5158C37.9337 25.697 39.9708 23.3799 42.5248 21.5461C43.7649 20.6561 45.1297 19.9387 46.4571 19.1753C46.9117 18.9144 47.2877 19.0506 47.4737 19.4313C47.6531 19.7977 47.4939 20.1334 47.0182 20.3837C46.8062 20.495 46.5875 20.5938 46.3765 20.7069C43.3305 22.3431 40.715 24.48 38.7547 27.3534C38.2128 28.1485 37.7697 29.0107 37.2595 29.8777C37.457 29.9429 37.5299 29.9755 37.6057 29.9918C40.5367 30.6104 43.131 30.0254 45.2467 27.809C46.6595 26.33 47.5313 24.5337 48.0847 22.5944C48.57 20.893 49.3507 19.4265 50.89 18.4166C50.8008 18.3639 50.7528 18.3217 50.6982 18.3063C48.334 17.6321 45.9382 17.1804 43.4647 17.3463C41.6434 17.4691 39.9113 17.8968 38.5015 19.1292C36.2917 21.0618 35.5638 23.5919 35.7652 26.4279C35.8189 27.1884 36.0769 27.9346 36.2409 28.6884V28.6894ZM30.9391 29.6485C30.9688 29.613 30.9986 29.5929 31.0091 29.565C32.3537 25.7834 30.5008 20.8681 25.4426 20.2792C23.2424 20.0231 21.1123 20.3674 19.0004 20.9342C18.8891 20.964 18.7827 21.0158 18.6024 21.0838C19.925 22.0122 20.5282 23.3032 20.9483 24.7322C21.1679 25.4784 21.4739 26.2102 21.8278 26.9036C22.8924 28.9896 24.4231 30.5318 26.8332 30.9835C27.8643 31.1763 28.8828 31.1696 29.9522 30.8521C29.8266 30.5903 29.7508 30.3601 29.6194 30.1702C28.8934 29.1219 28.2316 28.0171 27.402 27.0561C25.8185 25.2223 23.8764 23.823 21.681 22.7853C21.2389 22.5762 21.0845 22.2328 21.2542 21.8636C21.424 21.4953 21.7933 21.3764 22.2268 21.5519C22.2709 21.5701 22.314 21.5922 22.3572 21.6133C25.0695 22.9378 27.4116 24.7312 29.2473 27.1405C29.8544 27.9365 30.3713 28.8016 30.9381 29.6485H30.9391ZM45.4827 29.5737C44.7048 30.0139 44.0076 30.528 43.2269 30.8166C42.5047 31.0842 42.0156 31.4803 41.7681 32.1795C41.6914 32.3972 41.6434 32.6744 41.7077 32.8864C42.0223 33.925 42.3599 34.958 42.7282 35.9784C42.8989 36.4513 42.8174 36.7994 42.452 37.1332C42.0357 37.5139 41.6492 37.9283 41.1255 38.4519C41.9206 38.801 42.5853 39.1281 43.2768 39.3832C43.7832 39.5702 44.3231 39.668 44.8506 39.7975C45.3196 39.9126 45.5834 40.1898 45.5287 40.6866C45.3494 42.3266 45.6927 43.8487 46.5098 45.2758C46.6518 45.5242 46.7429 45.8004 46.8657 46.0603C46.9146 46.1639 46.9856 46.257 47.0594 46.3759C50.0345 41.0463 49.2461 33.9816 45.4788 29.5737H45.4827ZM33.4519 36.2537C34.199 34.301 34.9308 32.3972 35.6511 30.4896C35.6885 30.3918 35.6693 30.2326 35.6108 30.1443C34.434 28.3662 34.2594 26.3972 34.48 24.3486C34.4983 24.1817 34.5078 24.0129 34.5242 23.8192H32.1504C32.1677 23.9189 32.1686 23.9515 32.1782 23.9812C32.9704 26.4307 33.0999 28.8352 31.7092 31.1437C31.6527 31.2367 31.6392 31.3969 31.6776 31.4995C32.2559 33.0695 32.8458 34.6348 33.4529 36.2547L33.4519 36.2537ZM19.8991 46.5687C21.0183 48.5597 22.4042 50.1873 24.2706 51.5828C24.2025 50.9478 24.1632 50.4453 24.0893 49.9475C24.0577 49.7356 24.002 49.4987 23.8773 49.3337C23.2309 48.482 22.5644 47.6457 21.8892 46.8161C21.7933 46.6981 21.6139 46.5888 21.4672 46.5802C20.9761 46.5504 20.4812 46.5687 19.8991 46.5687Z" fill="#0F75BC"/>
<path d="M41.162 53.95C40.8004 53.9586 40.4906 53.6603 40.482 53.2959C40.4733 52.9314 40.7687 52.6226 41.1332 52.614C41.4977 52.6053 41.8046 52.9007 41.8113 53.2671C41.8189 53.6335 41.5255 53.9413 41.161 53.95H41.162Z" fill="#0F75BC"/>
</svg>
